<?xml version="1.0" encoding="UTF-8"?>
<svg width="35px" height="20px" viewBox="0 0 35 20" version="1.1" xmlns="http://www.w3.org/2000/svg" xmlns:xlink="http://www.w3.org/1999/xlink">
    <!-- Generator: Sketch 48.1 (47250) - http://www.bohemiancoding.com/sketch -->
    <title>reading time ICON</title>
    <desc>Created with Sketch.</desc>
    <defs>
        <polygon id="path-1" points="34.9656 0.08 0 0.08 0 19.9996 34.9656 19.9996 34.9656 0.08"></polygon>
    </defs>
    <g id="zvikov-HOME" stroke="none" stroke-width="1" fill="none" fill-rule="evenodd" transform="translate(-440.000000, -753.000000)">
        <g id="new-POST" transform="translate(359.000000, 138.000000)">
            <g id="post-READING-TIME" transform="translate(81.000000, 614.000000)">
                <g id="reading-time-ICON">
                    <g id="Page-1">
                        <g id="Group-3" transform="translate(0.000000, 0.919900)">
                            <mask id="mask-2" fill="white">
                                <use xlink:href="#path-1"></use>
                            </mask>
                            <g id="Clip-2"></g>
                            <path d="M24.1816,17.3896 C26.1796,15.5676 27.4436,12.9516 27.4436,10.0396 C27.4436,7.1286 26.1796,4.5126 24.1816,2.6896 C29.0396,4.9466 32.6906,8.9036 33.6726,10.0396 C32.6906,11.1766 29.0396,15.1336 24.1816,17.3896 Z M18.4466,18.9466 C18.1266,18.9696 17.8076,18.9996 17.4836,18.9996 C17.1596,18.9996 16.8406,18.9696 16.5206,18.9466 C12.0316,18.4636 8.5236,14.6546 8.5236,10.0396 C8.5236,5.4256 12.0316,1.6166 16.5206,1.1336 C16.8406,1.1106 17.1596,1.0796 17.4836,1.0796 C17.8076,1.0796 18.1266,1.1106 18.4466,1.1336 C22.9356,1.6166 26.4436,5.4256 26.4436,10.0396 C26.4436,14.6546 22.9356,18.4636 18.4466,18.9466 Z M1.2926,10.0396 C2.2756,8.9036 5.9266,4.9456 10.7856,2.6896 C8.7866,4.5126 7.5236,7.1276 7.5236,10.0396 C7.5236,12.9526 8.7866,15.5676 10.7856,17.3906 C5.9266,15.1346 2.2756,11.1766 1.2926,10.0396 Z M34.7166,9.7286 C34.4156,9.3496 27.4976,0.8276 18.5976,0.1466 C18.2316,0.1056 17.8606,0.0796 17.4836,0.0796 C17.1066,0.0796 16.7356,0.1056 16.3696,0.1466 C7.4676,0.8276 0.5496,9.3496 0.2486,9.7286 L-0.0004,10.0396 L0.2486,10.3516 C0.5496,10.7296 7.4676,19.2516 16.3696,19.9336 C16.7356,19.9746 17.1066,19.9996 17.4836,19.9996 C17.8606,19.9996 18.2316,19.9746 18.5976,19.9336 C27.4976,19.2516 34.4156,10.7296 34.7166,10.3516 L34.9656,10.0396 L34.7166,9.7286 Z" id="Fill-1" fill="#5FCCC4" mask="url(#mask-2)"></path>
                        </g>
                        <polygon id="Fill-4" fill="#5FCCC4" points="17.9502 5.7353 16.7512 5.7353 16.7512 11.7253 19.3442 14.3183 20.1912 13.4693 17.9502 11.2283"></polygon>
                    </g>
                </g>
            </g>
        </g>
    </g>
</svg>